<?xml version="1.0" encoding="UTF-8" standalone="no"?>
<!DOCTYPE svg PUBLIC "-//W3C//DTD SVG 1.1//EN" "http://www.w3.org/Graphics/SVG/1.1/DTD/svg11.dtd">
<svg xmlns:xl="http://www.w3.org/1999/xlink" xmlns:dc="http://purl.org/dc/elements/1.1/" xmlns="http://www.w3.org/2000/svg" version="1.1" viewBox="-722 835.868 424 424" width="424" height="424">
  <defs/>
  <metadata> Produced by OmniGraffle 7.19\n2021-10-26 01:00:42 +0000</metadata>
  <g id="Canvas_1" stroke-opacity="1" fill="none" stroke-dasharray="none" fill-opacity="1" stroke="none">
    <title>Canvas 1</title>
    <rect fill="white" x="-722" y="835.868" width="424" height="424"/>
    <g id="Canvas_1_Layer_1">
      <title>Layer 1</title>
      <g id="Group_577">
        <g id="Graphic_570">
          <path d="M -360.09353 897.9615 C -277.302 980.7526 -277.302 1114.9834 -360.09353 1197.7745 C -442.8846 1280.566 -577.1154 1280.566 -659.9065 1197.7745 C -742.698 1114.9834 -742.698 980.7526 -659.9065 897.9615 C -577.1154 815.17 -442.8846 815.17 -360.09353 897.9615" fill="#e9f0f3"/>
          <path d="M -360.09353 897.9615 C -277.302 980.7526 -277.302 1114.9834 -360.09353 1197.7745 C -442.8846 1280.566 -577.1154 1280.566 -659.9065 1197.7745 C -742.698 1114.9834 -742.698 980.7526 -659.9065 897.9615 C -577.1154 815.17 -442.8846 815.17 -360.09353 897.9615" stroke="black" stroke-linecap="round" stroke-linejoin="round" stroke-width="0"/>
        </g>
        <g id="Group_387">
          <g id="Group_388">
            <g id="Graphic_408">
              <path d="M -572.883 1055.7284 L -572.883 1047.868 L -580.7434 1047.868 L -580.7434 992.8454 L -588.6038 992.8454 L -588.6038 1051.7982 C -588.6038 1054.1563 -587.0317 1055.7284 -584.6736 1055.7284 Z" fill="black"/>
            </g>
            <g id="Graphic_407">
              <path d="M -580.7434 937.8227 L -490.34906 937.8227 L -490.34906 929.9623 L -584.6736 929.9623 C -587.0317 929.9623 -588.6038 931.5344 -588.6038 933.8925 L -588.6038 945.6831 L -580.7434 945.6831 Z" fill="black"/>
            </g>
            <g id="Graphic_406">
              <path d="M -399.9547 1079.7025 L -423.14284 1049.4401 C -423.92887 1048.261 -425.10793 1047.868 -426.287 1047.868 L -447.117 1047.868 L -447.117 1055.7284 L -428.2521 1055.7284 L -399.1687 1093.4582 C -398.38265 1094.6372 -397.2036 1095.0303 -396.02454 1095.0303 C -395.6315 1095.0303 -395.2385 1095.0303 -394.8455 1094.6372 C -393.2734 1094.2442 -392.09435 1092.6721 -392.09435 1091.1001 L -392.09435 1032.1472 L -399.9547 1032.1472 L -399.9547 1079.7025 Z" fill="black"/>
            </g>
            <g id="Graphic_405">
              <path d="M -596.8572 1120.1835 L -620.0453 1150.4459 L -620.0453 1008.5661 L -600.3943 1008.5661 L -600.3943 1000.7057 L -623.9755 1000.7057 C -626.3336 1000.7057 -627.90565 1002.2778 -627.90565 1004.6359 L -627.90565 1161.8435 C -627.90565 1163.4155 -626.7266 1164.9876 -625.1545 1165.3806 C -624.7615 1165.7736 -624.3685 1165.7736 -623.9755 1165.7736 C -622.7964 1165.7736 -621.61735 1165.3806 -620.8313 1164.2016 L -591.7479 1126.4718 L -572.883 1126.4718 L -572.883 1118.6114 L -593.713 1118.6114 C -594.8921 1118.6114 -596.0711 1119.0044 -596.8572 1120.1835 Z" fill="black"/>
            </g>
            <g id="Graphic_404">
              <path d="M -439.2566 1118.6114 L -447.117 1118.6114 L -447.117 1126.4718 L -435.3264 1126.4718 C -432.9683 1126.4718 -431.39623 1124.8997 -431.39623 1122.5416 L -431.39623 1067.519 L -439.2566 1067.519 Z" fill="black"/>
            </g>
            <g id="Graphic_403">
              <path d="M -458.90755 1047.868 L -561.09245 1047.868 C -563.45056 1047.868 -565.02264 1049.4401 -565.02264 1051.7982 L -565.02264 1067.519 L -584.6736 1067.519 L -584.6736 1075.3793 L -561.09245 1075.3793 C -558.73434 1075.3793 -557.16226 1073.8072 -557.16226 1071.4491 L -557.16226 1059.2655 L -512.3581 1090.314 C -511.5721 1090.707 -510.78604 1091.1001 -510 1091.1001 C -509.21396 1091.1001 -508.4279 1090.707 -508.0349 1090.314 L -462.83774 1058.8725 L -462.83774 1118.6114 L -557.16226 1118.6114 L -557.16226 1102.8906 C -557.16226 1100.5325 -558.73434 1098.9604 -561.09245 1098.9604 L -592.53396 1098.9604 L -592.53396 1106.8208 L -565.02264 1106.8208 L -565.02264 1122.5416 C -565.02264 1124.8997 -563.45056 1126.4718 -561.09245 1126.4718 L -458.90755 1126.4718 C -456.54944 1126.4718 -454.97736 1124.8997 -454.97736 1122.5416 L -454.97736 1051.7982 C -454.97736 1049.4401 -456.54944 1047.868 -458.90755 1047.868 Z M -510 1082.4537 L -548.90887 1055.7284 L -471.48415 1055.7284 Z" fill="black"/>
            </g>
            <g id="Graphic_402">
              <rect x="-608.2547" y="1067.519" width="15.720754" height="7.860377" fill="black"/>
            </g>
            <g id="Graphic_401">
              <path d="M -396.02454 969.2642 L -407.02906 969.2642 C -407.4221 968.8712 -407.4221 968.0852 -407.8151 967.6922 L -400.34774 960.2248 C -399.5617 959.4388 -399.1687 958.6527 -399.1687 957.4737 C -399.1687 956.2946 -399.5617 955.5086 -400.34774 954.7225 L -416.85453 938.2157 C -418.4266 936.6437 -420.7847 936.6437 -422.3568 938.2157 L -429.82416 945.6831 C -430.6102 945.6831 -431.0032 945.2901 -431.39623 945.2901 L -431.39623 933.8925 C -431.39623 931.5344 -432.9683 929.9623 -435.3264 929.9623 L -458.90755 929.9623 C -461.26566 929.9623 -462.83774 931.5344 -462.83774 933.8925 L -462.83774 944.8971 C -463.23076 945.2901 -464.0168 945.2901 -464.4098 945.6831 L -471.8772 938.2157 C -473.44925 936.6437 -475.80736 936.6437 -477.37944 938.2157 L -493.8862 954.7225 C -494.67227 955.5086 -495.0653 956.2946 -495.0653 957.4737 C -495.0653 958.6527 -494.67227 959.4388 -493.8862 960.2248 L -486.41887 967.6922 C -486.41887 968.4782 -486.8119 968.8712 -486.8119 968.8712 L -498.20943 968.8712 C -500.56755 968.8712 -502.1396 970.4433 -502.1396 972.8014 L -502.1396 996.3825 C -502.1396 998.7406 -500.56755 1000.3127 -498.20943 1000.3127 L -487.2049 1000.3127 C -486.8119 1000.7057 -486.8119 1001.4918 -486.41887 1001.8848 L -493.8862 1009.3521 C -494.67227 1010.1382 -495.0653 1010.9242 -495.0653 1012.1033 C -495.0653 1013.2823 -494.67227 1014.0684 -493.8862 1014.8544 L -477.37944 1031.3612 C -475.80736 1032.9333 -473.44925 1032.9333 -471.8772 1031.3612 L -464.4098 1023.8938 C -463.6238 1024.2869 -463.23076 1024.2869 -462.83774 1024.6799 L -462.83774 1036.0774 C -462.83774 1038.4355 -461.26566 1040.0076 -458.90755 1040.0076 L -435.3264 1040.0076 C -432.9683 1040.0076 -431.39623 1038.4355 -431.39623 1036.0774 L -431.39623 1025.0729 C -431.0032 1024.6799 -430.2172 1024.6799 -429.82416 1024.2869 L -422.3568 1031.7542 C -420.7847 1033.3263 -418.4266 1033.3263 -416.85453 1031.7542 L -400.34774 1015.2474 C -399.5617 1014.4614 -399.1687 1013.6754 -399.1687 1012.4963 C -399.1687 1011.3172 -399.5617 1010.5312 -400.34774 1009.7452 L -407.8151 1002.2778 C -407.4221 1001.8848 -407.4221 1001.0988 -407.02906 1000.7057 L -396.02454 1000.7057 C -393.6664 1000.7057 -392.09435 999.1337 -392.09435 996.7755 L -392.09435 973.1944 C -392.09435 970.8363 -393.6664 969.2642 -396.02454 969.2642 Z M -399.9547 992.8454 L -409.7802 992.8454 C -411.7453 992.8454 -413.31736 994.4174 -413.7104 995.9895 C -413.7104 996.7755 -415.28246 999.9197 -415.6755 1000.7057 C -416.0685 1001.4918 -416.4615 1002.2778 -416.4615 1003.0638 C -416.4615 1004.2429 -416.0685 1005.029 -415.28246 1005.815 L -408.60114 1012.4963 L -419.60567 1023.5008 L -426.287 1016.8195 C -427.073 1016.0335 -427.85906 1015.6405 -429.0381 1015.6405 C -429.82416 1015.6405 -430.6102 1016.0335 -431.39623 1016.4265 C -432.18227 1016.8195 -435.3264 1017.9986 -436.11246 1018.3916 C -438.07755 1018.7846 -439.2566 1020.3567 -439.2566 1022.3218 L -439.2566 1032.1472 L -454.97736 1032.1472 L -454.97736 1022.3218 C -454.97736 1021.1427 -455.3704 1020.3567 -456.1564 1019.5706 C -456.94246 1018.3916 -463.6238 1015.6405 -465.19585 1015.6405 C -466.3749 1015.6405 -467.16095 1016.0335 -467.947 1016.8195 L -474.6283 1023.5008 L -485.63283 1012.4963 L -478.9515 1005.815 C -478.1655 1005.029 -477.77245 1004.2429 -477.77245 1003.0638 C -477.77245 1002.2778 -478.1655 1001.4918 -478.5585 1000.7057 C -478.9515 999.9197 -480.13057 996.7755 -480.5236 995.9895 C -480.9166 994.0244 -482.4887 992.8454 -484.4538 992.8454 L -494.27925 992.8454 L -494.27925 977.1246 L -484.4538 977.1246 C -483.2747 977.1246 -482.4887 976.7316 -481.70264 975.9455 C -480.5236 975.1595 -477.77245 968.4782 -477.77245 966.9061 C -477.77245 965.7271 -478.1655 964.941 -478.9515 964.155 L -485.63283 957.4737 L -474.6283 946.4691 L -467.947 953.1505 C -467.16095 953.9365 -466.3749 954.3295 -465.19585 954.3295 C -464.4098 954.3295 -463.6238 953.9365 -462.83774 953.5435 C -462.0517 953.1505 -458.90755 951.9714 -458.1215 951.5784 C -456.1564 951.1854 -454.97736 949.6133 -454.97736 947.6482 L -454.97736 937.8227 L -439.2566 937.8227 L -439.2566 947.6482 C -439.2566 948.8272 -438.8636 949.6133 -438.07755 950.3993 C -437.2915 951.5784 -430.6102 954.3295 -429.0381 954.3295 C -427.85906 954.3295 -427.073 953.9365 -426.287 953.1505 L -419.60567 946.4691 L -408.60114 957.4737 L -415.28246 964.155 C -416.0685 964.941 -416.4615 965.7271 -416.4615 966.9061 C -416.4615 967.6922 -416.0685 968.4782 -415.6755 969.2642 C -415.28246 970.0503 -414.1034 973.1944 -413.7104 973.9805 C -413.31736 975.9455 -411.7453 977.1246 -409.7802 977.1246 L -399.9547 977.1246 Z" fill="black"/>
            </g>
            <g id="Graphic_400">
              <path d="M -447.117 969.2642 C -455.7634 969.2642 -462.83774 976.3386 -462.83774 984.985 C -462.83774 993.6314 -455.7634 1000.7057 -447.117 1000.7057 C -438.47057 1000.7057 -431.39623 993.6314 -431.39623 984.985 C -431.39623 976.3386 -438.47057 969.2642 -447.117 969.2642 Z M -447.117 992.8454 C -451.4402 992.8454 -454.97736 989.3082 -454.97736 984.985 C -454.97736 980.6618 -451.4402 977.1246 -447.117 977.1246 C -442.7938 977.1246 -439.2566 980.6618 -439.2566 984.985 C -439.2566 989.3082 -442.7938 992.8454 -447.117 992.8454 Z" fill="black"/>
            </g>
            <g id="Graphic_399">
              <rect x="-608.2547" y="1098.9604" width="7.860377" height="7.860377" fill="black"/>
            </g>
            <g id="Graphic_398">
              <rect x="-600.3943" y="1083.2397" width="43.232073" height="7.860377" fill="black"/>
            </g>
            <g id="Graphic_397">
              <path d="M -571.70396 966.5131 L -566.2017 972.0154 L -554.4111 960.2248 C -552.83905 958.6527 -552.83905 956.2946 -554.4111 954.7225 L -566.2017 942.932 L -571.70396 948.4342 L -566.5947 953.5435 L -627.90565 953.5435 L -627.90565 961.4039 L -566.5947 961.4039 Z" fill="black"/>
            </g>
            <g id="Graphic_396">
              <path d="M -614.936 995.5965 L -609.4338 990.0942 L -614.543 984.985 L -553.2321 984.985 L -553.2321 977.1246 L -614.543 977.1246 L -609.4338 972.0154 L -614.936 966.5131 L -626.7266 978.3037 C -628.2987 979.8757 -628.2987 982.2338 -626.7266 983.8059 Z" fill="black"/>
            </g>
            <g id="Graphic_395">
              <rect x="-549.3019" y="1024.2869" width="43.232073" height="7.860377" fill="black"/>
            </g>
            <g id="Graphic_394">
              <rect x="-568.9528" y="1024.2869" width="11.790565" height="7.860377" fill="black"/>
            </g>
            <g id="Graphic_393">
              <rect x="-568.9528" y="1008.5661" width="62.883015" height="7.860377" fill="black"/>
            </g>
            <g id="Graphic_392">
              <rect x="-568.9528" y="992.8454" width="62.883015" height="7.860377" fill="black"/>
            </g>
            <g id="Graphic_391">
              <rect x="-529.65094" y="977.1246" width="23.58113" height="7.860377" fill="black"/>
            </g>
            <g id="Graphic_390">
              <rect x="-529.65094" y="961.4039" width="23.58113" height="7.860377" fill="black"/>
            </g>
            <g id="Graphic_389">
              <rect x="-529.65094" y="945.6831" width="23.58113" height="7.860377" fill="black"/>
            </g>
          </g>
        </g>
      </g>
    </g>
  </g>
</svg>
