<?xml version="1.0" encoding="UTF-8" standalone="no"?>
<!DOCTYPE svg PUBLIC "-//W3C//DTD SVG 1.1//EN" "http://www.w3.org/Graphics/SVG/1.1/DTD/svg11.dtd">
<svg xmlns:xl="http://www.w3.org/1999/xlink" xmlns:dc="http://purl.org/dc/elements/1.1/" xmlns="http://www.w3.org/2000/svg" version="1.1" viewBox="-714.98 1818 424 424" width="424" height="424">
  <defs/>
  <metadata> Produced by OmniGraffle 7.19\n2021-10-26 01:00:42 +0000</metadata>
  <g id="Canvas_1" stroke-opacity="1" fill="none" stroke-dasharray="none" fill-opacity="1" stroke="none">
    <title>Canvas 1</title>
    <rect fill="white" x="-714.98" y="1818" width="424" height="424"/>
    <g id="Canvas_1_Layer_1">
      <title>Layer 1</title>
      <g id="Group_579">
        <g id="Graphic_572">
          <path d="M -353.07353 1880.0935 C -270.282 1962.8846 -270.282 2097.1154 -353.07353 2179.9065 C -435.8646 2262.698 -570.0954 2262.698 -652.8865 2179.9065 C -735.678 2097.1154 -735.678 1962.8846 -652.8865 1880.0935 C -570.0954 1797.302 -435.8646 1797.302 -353.07353 1880.0935" fill="#e9f0f3"/>
          <path d="M -353.07353 1880.0935 C -270.282 1962.8846 -270.282 2097.1154 -353.07353 2179.9065 C -435.8646 2262.698 -570.0954 2262.698 -652.8865 2179.9065 C -735.678 2097.1154 -735.678 1962.8846 -652.8865 1880.0935 C -570.0954 1797.302 -435.8646 1797.302 -353.07353 1880.0935" stroke="black" stroke-linecap="round" stroke-linejoin="round" stroke-width="0"/>
        </g>
        <g id="Graphic_312">
          <path d="M -397.273 2019.5932 C -397.43783 2016.4239 -397.92115 2013.3347 -398.66504 2010.3435 C -404.8657 1967.6807 -449.3102 1934.486 -503.0847 1934.486 C -548.2041 1934.486 -586.7665 1957.852 -601.6823 1990.57 C -602.9162 1993.2316 -603.9764 1995.98 -604.8673 1998.793 C -604.9608 1999.0826 -605.0432 1999.3744 -605.1323 1999.664 C -605.3907 2000.5192 -605.6379 2001.381 -605.86284 2002.2475 C -606.0611 2002.9892 -606.2415 2003.7353 -606.4152 2004.4836 C -606.4642 2004.7064 -606.5132 2004.9269 -606.56 2005.1496 C -607.1324 2007.7243 -607.5511 2010.3413 -607.8362 2012.9872 C -608.57785 2015.1098 -609.10125 2017.3326 -609.324 2019.6511 C -616.6427 2020.4596 -622.36 2026.658 -622.36 2034.186 C -622.36 2041.6808 -616.7028 2047.8747 -609.4353 2048.7344 C -607.6268 2091.3794 -572.3852 2125.514 -529.30596 2125.514 C -486.12426 2125.514 -450.82475 2091.2145 -449.17214 2048.4315 C -442.73764 2046.8836 -437.9357 2041.0928 -437.9357 2034.186 C -437.9357 2028.0478 -441.73316 2022.7849 -447.1008 2020.6044 C -447.67543 2015.199 -449.85813 2010.2544 -453.14776 2006.1697 C -455.2102 1995.7618 -459.629 1986.1245 -465.87643 1977.759 C -461.07896 1976.2578 -455.9652 1975.4338 -450.64657 1975.4338 C -426.5345 1975.4338 -406.4448 1992.158 -402.41126 2014.092 C -402.2175 2016.0608 -402.08385 2018.0408 -402.06826 2020.0454 C -408.309 2021.7291 -412.9216 2027.422 -412.9216 2034.1883 C -412.9216 2042.2732 -406.34456 2048.8502 -398.2597 2048.8502 C -390.17704 2048.8502 -383.6 2042.2732 -383.6 2034.1883 C -383.6 2026.4353 -389.65364 2020.1055 -397.273 2019.5932 Z M -504.4522 2023.6913 C -498.6614 2023.6913 -493.953 2028.3997 -493.953 2034.1883 C -493.953 2039.977 -498.6614 2044.6853 -504.4522 2044.6853 C -510.2408 2044.6853 -514.9492 2039.977 -514.9492 2034.1883 C -514.9492 2028.3997 -510.2408 2023.6913 -504.4522 2023.6913 Z M -500.4966 2003.7576 C -507.3231 1977.1398 -528.35716 1957.6871 -553.2109 1957.6871 C -557.779 1957.6871 -562.21564 1958.3575 -566.463 1959.5936 C -555.6809 1953.8652 -543.224 1950.571 -529.95186 1950.571 C -507.0269 1950.571 -486.5029 1960.3464 -472.9234 1975.6587 C -485.50954 1981.2112 -495.46307 1991.314 -500.4966 2003.7576 Z M -553.2109 1961.8498 C -528.4329 1961.8498 -507.7374 1983.0108 -503.22277 2010.9337 C -504.6081 2013.6175 -505.56137 2016.533 -506.0068 2019.611 C -513.36116 2020.3906 -519.1119 2026.629 -519.1119 2034.186 C -519.1119 2042.271 -512.53485 2048.848 -504.4522 2048.848 C -503.8041 2048.848 -503.17154 2048.7923 -502.5457 2048.71 C -504.01567 2061.9085 -515.2276 2072.2095 -528.81374 2072.2095 C -542.3687 2072.2095 -553.55837 2061.9553 -555.06843 2048.7968 C -547.4468 2048.2845 -541.3999 2041.937 -541.3999 2034.1839 C -541.3999 2027.1436 -546.39334 2021.248 -553.0216 2019.845 C -554.3201 2005.3344 -566.4452 1993.922 -581.17835 1993.922 C -589.016 1993.922 -596.11645 1997.1538 -601.24355 2002.3589 C -594.2745 1978.7947 -575.38085 1961.8498 -553.2109 1961.8498 Z M -556.05956 2023.6913 C -550.27096 2023.6913 -545.5626 2028.3997 -545.5626 2034.1883 C -545.5626 2039.977 -550.27096 2044.6853 -556.05956 2044.6853 C -561.84815 2044.6853 -566.55876 2039.977 -566.55876 2034.1883 C -566.55876 2028.3997 -561.84815 2023.6913 -556.05956 2023.6913 Z M -618.1995 2034.186 C -618.1995 2028.3975 -613.4911 2023.689 -607.70254 2023.689 C -601.9117 2023.689 -597.20334 2028.3975 -597.20334 2034.186 C -597.20334 2039.9747 -601.9117 2044.683 -607.70254 2044.683 C -613.4911 2044.683 -618.1995 2039.9747 -618.1995 2034.186 Z M -442.10065 2034.186 C -442.10065 2039.9747 -446.8068 2044.683 -452.59763 2044.683 C -458.38845 2044.683 -463.0946 2039.9747 -463.0946 2034.186 C -463.0946 2028.3975 -458.38845 2023.689 -452.59763 2023.689 C -446.8068 2023.689 -442.10065 2028.3997 -442.10065 2034.186 Z M -451.7713 2019.5687 C -452.0453 2019.5531 -452.3192 2019.5264 -452.59763 2019.5264 C -460.6803 2019.5264 -467.2573 2026.1034 -467.2573 2034.186 C -467.2573 2042.017 -461.0834 2048.416 -453.346 2048.8057 C -455.1857 2089.121 -488.5542 2121.3469 -529.3082 2121.3469 C -570.1268 2121.3469 -603.52424 2089.0185 -605.2771 2048.6297 C -598.3459 2047.4693 -593.0384 2041.438 -593.0384 2034.186 C -593.0384 2027.3596 -597.7379 2021.6222 -604.0677 2019.9986 C -604.0632 2019.8427 -604.0632 2019.6823 -604.05655 2019.5264 L -603.91846 2019.5264 C -603.91846 2018.2502 -603.8739 2016.9807 -603.8004 2015.72 C -603.7648 2015.3303 -603.7113 2014.945 -603.669 2014.5574 C -600.4284 2005.1563 -591.5818 1998.381 -581.1739 1998.381 C -568.982 1998.381 -558.91265 2007.6708 -557.5206 2019.6021 C -564.9195 2020.3416 -570.7148 2026.6 -570.7148 2034.1883 C -570.7148 2041.164 -565.81263 2047.0083 -559.27346 2048.4805 C -557.8926 2064.089 -544.7652 2076.3722 -528.80483 2076.3722 C -512.5059 2076.3722 -499.1759 2063.5522 -498.2872 2047.4716 C -493.2737 2045.1374 -489.78584 2040.0705 -489.78584 2034.1839 C -489.78584 2028.353 -493.218 2023.3194 -498.16026 2020.9585 C -498.207 2018.3304 -498.40525 2015.7446 -498.71706 2013.201 C -498.579 2012.5329 -498.42084 2011.8692 -498.256 2011.2121 C -493.84164 2004.2052 -485.8102 1999.4902 -476.6273 1999.4902 C -468.6538 1999.4902 -461.5467 2003.0404 -456.9185 2008.555 C -456.30376 2012.1275 -455.9719 2015.7913 -455.9719 2019.522 L -452.5865 2019.522 L -451.80473 2019.522 C -451.80473 2019.424 -451.8114 2019.326 -451.8114 2019.228 C -451.80473 2019.3438 -451.7936 2019.4596 -451.7713 2019.5687 Z M -458.7671 2000.831 C -463.74273 1997.2117 -469.9211 1995.038 -476.63176 1995.038 C -483.1264 1995.038 -489.1199 1997.0736 -494.01536 2000.4835 C -488.79917 1991.0333 -480.3067 1983.4852 -469.979 1979.2334 C -464.9766 1985.6902 -461.1458 1992.9777 -458.7671 2000.831 Z M -450.6488 1970.9793 C -457.0343 1970.9793 -463.16365 1972.0617 -468.84534 1974.0417 C -483.17317 1957.2194 -505.2295 1946.4106 -529.95186 1946.4106 C -538.62696 1946.4106 -546.96574 1947.7603 -554.76776 1950.2125 C -539.6359 1942.8782 -521.96276 1938.651 -503.0869 1938.651 C -461.03887 1938.651 -424.93755 1959.5936 -409.7478 1989.285 C -419.55877 1978.102 -434.24964 1970.9793 -450.6488 1970.9793 Z M -398.2597 2044.683 C -404.05273 2044.683 -408.7589 2039.9747 -408.7589 2034.186 C -408.7589 2028.3975 -404.05273 2023.689 -398.2597 2023.689 C -392.4711 2023.689 -387.7627 2028.3975 -387.7627 2034.186 C -387.7627 2039.9747 -392.4711 2044.683 -398.2597 2044.683 Z" fill="black"/>
          <path d="M -397.273 2019.5932 C -397.43783 2016.4239 -397.92115 2013.3347 -398.66504 2010.3435 C -404.8657 1967.6807 -449.3102 1934.486 -503.0847 1934.486 C -548.2041 1934.486 -586.7665 1957.852 -601.6823 1990.57 C -602.9162 1993.2316 -603.9764 1995.98 -604.8673 1998.793 C -604.9608 1999.0826 -605.0432 1999.3744 -605.1323 1999.664 C -605.3907 2000.5192 -605.6379 2001.381 -605.86284 2002.2475 C -606.0611 2002.9892 -606.2415 2003.7353 -606.4152 2004.4836 C -606.4642 2004.7064 -606.5132 2004.9269 -606.56 2005.1496 C -607.1324 2007.7243 -607.5511 2010.3413 -607.8362 2012.9872 C -608.57785 2015.1098 -609.10125 2017.3326 -609.324 2019.6511 C -616.6427 2020.4596 -622.36 2026.658 -622.36 2034.186 C -622.36 2041.6808 -616.7028 2047.8747 -609.4353 2048.7344 C -607.6268 2091.3794 -572.3852 2125.514 -529.30596 2125.514 C -486.12426 2125.514 -450.82475 2091.2145 -449.17214 2048.4315 C -442.73764 2046.8836 -437.9357 2041.0928 -437.9357 2034.186 C -437.9357 2028.0478 -441.73316 2022.7849 -447.1008 2020.6044 C -447.67543 2015.199 -449.85813 2010.2544 -453.14776 2006.1697 C -455.2102 1995.7618 -459.629 1986.1245 -465.87643 1977.759 C -461.07896 1976.2578 -455.9652 1975.4338 -450.64657 1975.4338 C -426.5345 1975.4338 -406.4448 1992.158 -402.41126 2014.092 C -402.2175 2016.0608 -402.08385 2018.0408 -402.06826 2020.0454 C -408.309 2021.7291 -412.9216 2027.422 -412.9216 2034.1883 C -412.9216 2042.2732 -406.34456 2048.8502 -398.2597 2048.8502 C -390.17704 2048.8502 -383.6 2042.2732 -383.6 2034.1883 C -383.6 2026.4353 -389.65364 2020.1055 -397.273 2019.5932 Z M -504.4522 2023.6913 C -498.6614 2023.6913 -493.953 2028.3997 -493.953 2034.1883 C -493.953 2039.977 -498.6614 2044.6853 -504.4522 2044.6853 C -510.2408 2044.6853 -514.9492 2039.977 -514.9492 2034.1883 C -514.9492 2028.3997 -510.2408 2023.6913 -504.4522 2023.6913 Z M -500.4966 2003.7576 C -507.3231 1977.1398 -528.35716 1957.6871 -553.2109 1957.6871 C -557.779 1957.6871 -562.21564 1958.3575 -566.463 1959.5936 C -555.6809 1953.8652 -543.224 1950.571 -529.95186 1950.571 C -507.0269 1950.571 -486.5029 1960.3464 -472.9234 1975.6587 C -485.50954 1981.2112 -495.46307 1991.314 -500.4966 2003.7576 Z M -553.2109 1961.8498 C -528.4329 1961.8498 -507.7374 1983.0108 -503.22277 2010.9337 C -504.6081 2013.6175 -505.56137 2016.533 -506.0068 2019.611 C -513.36116 2020.3906 -519.1119 2026.629 -519.1119 2034.186 C -519.1119 2042.271 -512.53485 2048.848 -504.4522 2048.848 C -503.8041 2048.848 -503.17154 2048.7923 -502.5457 2048.71 C -504.01567 2061.9085 -515.2276 2072.2095 -528.81374 2072.2095 C -542.3687 2072.2095 -553.55837 2061.9553 -555.06843 2048.7968 C -547.4468 2048.2845 -541.3999 2041.937 -541.3999 2034.1839 C -541.3999 2027.1436 -546.39334 2021.248 -553.0216 2019.845 C -554.3201 2005.3344 -566.4452 1993.922 -581.17835 1993.922 C -589.016 1993.922 -596.11645 1997.1538 -601.24355 2002.3589 C -594.2745 1978.7947 -575.38085 1961.8498 -553.2109 1961.8498 Z M -556.05956 2023.6913 C -550.27096 2023.6913 -545.5626 2028.3997 -545.5626 2034.1883 C -545.5626 2039.977 -550.27096 2044.6853 -556.05956 2044.6853 C -561.84815 2044.6853 -566.55876 2039.977 -566.55876 2034.1883 C -566.55876 2028.3997 -561.84815 2023.6913 -556.05956 2023.6913 Z M -618.1995 2034.186 C -618.1995 2028.3975 -613.4911 2023.689 -607.70254 2023.689 C -601.9117 2023.689 -597.20334 2028.3975 -597.20334 2034.186 C -597.20334 2039.9747 -601.9117 2044.683 -607.70254 2044.683 C -613.4911 2044.683 -618.1995 2039.9747 -618.1995 2034.186 Z M -442.10065 2034.186 C -442.10065 2039.9747 -446.8068 2044.683 -452.59763 2044.683 C -458.38845 2044.683 -463.0946 2039.9747 -463.0946 2034.186 C -463.0946 2028.3975 -458.38845 2023.689 -452.59763 2023.689 C -446.8068 2023.689 -442.10065 2028.3997 -442.10065 2034.186 Z M -451.7713 2019.5687 C -452.0453 2019.5531 -452.3192 2019.5264 -452.59763 2019.5264 C -460.6803 2019.5264 -467.2573 2026.1034 -467.2573 2034.186 C -467.2573 2042.017 -461.0834 2048.416 -453.346 2048.8057 C -455.1857 2089.121 -488.5542 2121.3469 -529.3082 2121.3469 C -570.1268 2121.3469 -603.52424 2089.0185 -605.2771 2048.6297 C -598.3459 2047.4693 -593.0384 2041.438 -593.0384 2034.186 C -593.0384 2027.3596 -597.7379 2021.6222 -604.0677 2019.9986 C -604.0632 2019.8427 -604.0632 2019.6823 -604.05655 2019.5264 L -603.91846 2019.5264 C -603.91846 2018.2502 -603.8739 2016.9807 -603.8004 2015.72 C -603.7648 2015.3303 -603.7113 2014.945 -603.669 2014.5574 C -600.4284 2005.1563 -591.5818 1998.381 -581.1739 1998.381 C -568.982 1998.381 -558.91265 2007.6708 -557.5206 2019.6021 C -564.9195 2020.3416 -570.7148 2026.6 -570.7148 2034.1883 C -570.7148 2041.164 -565.81263 2047.0083 -559.27346 2048.4805 C -557.8926 2064.089 -544.7652 2076.3722 -528.80483 2076.3722 C -512.5059 2076.3722 -499.1759 2063.5522 -498.2872 2047.4716 C -493.2737 2045.1374 -489.78584 2040.0705 -489.78584 2034.1839 C -489.78584 2028.353 -493.218 2023.3194 -498.16026 2020.9585 C -498.207 2018.3304 -498.40525 2015.7446 -498.71706 2013.201 C -498.579 2012.5329 -498.42084 2011.8692 -498.256 2011.2121 C -493.84164 2004.2052 -485.8102 1999.4902 -476.6273 1999.4902 C -468.6538 1999.4902 -461.5467 2003.0404 -456.9185 2008.555 C -456.30376 2012.1275 -455.9719 2015.7913 -455.9719 2019.522 L -452.5865 2019.522 L -451.80473 2019.522 C -451.80473 2019.424 -451.8114 2019.326 -451.8114 2019.228 C -451.80473 2019.3438 -451.7936 2019.4596 -451.7713 2019.5687 Z M -458.7671 2000.831 C -463.74273 1997.2117 -469.9211 1995.038 -476.63176 1995.038 C -483.1264 1995.038 -489.1199 1997.0736 -494.01536 2000.4835 C -488.79917 1991.0333 -480.3067 1983.4852 -469.979 1979.2334 C -464.9766 1985.6902 -461.1458 1992.9777 -458.7671 2000.831 Z M -450.6488 1970.9793 C -457.0343 1970.9793 -463.16365 1972.0617 -468.84534 1974.0417 C -483.17317 1957.2194 -505.2295 1946.4106 -529.95186 1946.4106 C -538.62696 1946.4106 -546.96574 1947.7603 -554.76776 1950.2125 C -539.6359 1942.8782 -521.96276 1938.651 -503.0869 1938.651 C -461.03887 1938.651 -424.93755 1959.5936 -409.7478 1989.285 C -419.55877 1978.102 -434.24964 1970.9793 -450.6488 1970.9793 Z M -398.2597 2044.683 C -404.05273 2044.683 -408.7589 2039.9747 -408.7589 2034.186 C -408.7589 2028.3975 -404.05273 2023.689 -398.2597 2023.689 C -392.4711 2023.689 -387.7627 2028.3975 -387.7627 2034.186 C -387.7627 2039.9747 -392.4711 2044.683 -398.2597 2044.683 Z" stroke="black" stroke-linecap="butt" stroke-linejoin="round" stroke-width="3"/>
        </g>
      </g>
    </g>
  </g>
</svg>
