<?xml version="1.0" encoding="UTF-8" standalone="no"?>
<!DOCTYPE svg PUBLIC "-//W3C//DTD SVG 1.1//EN" "http://www.w3.org/Graphics/SVG/1.1/DTD/svg11.dtd">
<svg xmlns:xl="http://www.w3.org/1999/xlink" xmlns:dc="http://purl.org/dc/elements/1.1/" xmlns="http://www.w3.org/2000/svg" version="1.1" viewBox="-716.98 -793 425 425" width="425" height="425">
  <defs/>
  <metadata> Produced by OmniGraffle 7.19\n2021-10-26 01:00:42 +0000</metadata>
  <g id="Canvas_1" stroke-opacity="1" fill="none" stroke-dasharray="none" fill-opacity="1" stroke="none">
    <title>Canvas 1</title>
    <rect fill="none" x="-716.98" y="-793" width="425" height="425"/>
    <g id="Canvas_1_Layer_1">
      <title>Layer 1</title>
      <g id="Group_574">
        <g id="Graphic_559">
          <path d="M -355.07353 -730.9065 C -272.282 -648.1154 -272.282 -513.8846 -355.07353 -431.09353 C -437.8646 -348.302 -572.0954 -348.302 -654.8865 -431.09353 C -737.678 -513.8846 -737.678 -648.1154 -654.8865 -730.9065 C -572.0954 -813.698 -437.8646 -813.698 -355.07353 -730.9065" fill="#e9f0f3"/>
          <path d="M -355.07353 -730.9065 C -272.282 -648.1154 -272.282 -513.8846 -355.07353 -431.09353 C -437.8646 -348.302 -572.0954 -348.302 -654.8865 -431.09353 C -737.678 -513.8846 -737.678 -648.1154 -654.8865 -730.9065 C -572.0954 -813.698 -437.8646 -813.698 -355.07353 -730.9065" stroke="black" stroke-linecap="round" stroke-linejoin="round" stroke-width="0"/>
        </g>
        <g id="Group_428">
          <g id="Group_429">
            <g id="Graphic_477">
              <path d="M -391.39667 -698.5 L -493.23 -698.5 C -495.58 -698.5 -497.14667 -696.9333 -497.14667 -694.5833 L -497.14667 -655.4167 L -497.14667 -616.25 L -497.14667 -577.0833 C -497.14667 -574.7333 -495.58 -573.1667 -493.23 -573.1667 L -446.23 -573.1667 L -446.23 -565.3333 L -497.14667 -565.3333 L -497.14667 -557.5 L -387.48 -557.5 L -387.48 -565.3333 L -438.39667 -565.3333 L -438.39667 -573.1667 L -391.39667 -573.1667 C -389.04667 -573.1667 -387.48 -574.7333 -387.48 -577.0833 L -387.48 -616.25 L -387.48 -655.4167 L -387.48 -694.5833 C -387.48 -696.9333 -389.04667 -698.5 -391.39667 -698.5 Z M -489.31333 -651.5 L -395.31333 -651.5 L -395.31333 -620.1667 L -489.31333 -620.1667 Z M -489.31333 -690.6667 L -395.31333 -690.6667 L -395.31333 -659.3333 L -489.31333 -659.3333 Z M -395.31333 -581 L -489.31333 -581 L -489.31333 -612.3333 L -395.31333 -612.3333 Z" fill="black"/>
            </g>
            <g id="Graphic_476">
              <path d="M -516.73 -604.5 L -618.5633 -604.5 C -620.9133 -604.5 -622.48 -602.9333 -622.48 -600.5833 L -622.48 -561.4167 L -622.48 -522.25 L -622.48 -483.08333 C -622.48 -480.73333 -620.9133 -479.16667 -618.5633 -479.16667 L -571.5633 -479.16667 L -571.5633 -471.33333 L -622.48 -471.33333 L -622.48 -463.5 L -512.81333 -463.5 L -512.81333 -471.33333 L -563.73 -471.33333 L -563.73 -479.16667 L -516.73 -479.16667 C -514.38 -479.16667 -512.81333 -480.73333 -512.81333 -483.08333 L -512.81333 -522.25 L -512.81333 -561.4167 L -512.81333 -600.5833 C -512.81333 -602.9333 -514.38 -604.5 -516.73 -604.5 Z M -614.6467 -557.5 L -520.64667 -557.5 L -520.64667 -526.16667 L -614.6467 -526.16667 Z M -614.6467 -596.6667 L -520.64667 -596.6667 L -520.64667 -565.3333 L -614.6467 -565.3333 Z M -520.64667 -487 L -614.6467 -487 L -614.6467 -518.33333 L -520.64667 -518.33333 Z" fill="black"/>
            </g>
            <g id="Graphic_475">
              <rect x="-481.48" y="-682.8333" width="7.833333" height="15.666667" fill="black"/>
            </g>
            <g id="Graphic_474">
              <rect x="-465.81333" y="-682.8333" width="7.833333" height="15.666667" fill="black"/>
            </g>
            <g id="Graphic_473">
              <rect x="-450.14667" y="-682.8333" width="7.833333" height="15.666667" fill="black"/>
            </g>
            <g id="Graphic_472">
              <rect x="-481.48" y="-643.6667" width="7.833333" height="15.666667" fill="black"/>
            </g>
            <g id="Graphic_471">
              <rect x="-465.81333" y="-643.6667" width="7.833333" height="15.666667" fill="black"/>
            </g>
            <g id="Graphic_470">
              <rect x="-450.14667" y="-643.6667" width="7.833333" height="15.666667" fill="black"/>
            </g>
            <g id="Graphic_469">
              <rect x="-426.64667" y="-678.9167" width="7.833333" height="7.833333" fill="black"/>
            </g>
            <g id="Graphic_468">
              <rect x="-410.98" y="-678.9167" width="7.833333" height="7.833333" fill="black"/>
            </g>
            <g id="Graphic_467">
              <rect x="-426.64667" y="-639.75" width="7.833333" height="7.833333" fill="black"/>
            </g>
            <g id="Graphic_466">
              <rect x="-410.98" y="-639.75" width="7.833333" height="7.833333" fill="black"/>
            </g>
            <g id="Graphic_465">
              <rect x="-446.23" y="-600.5833" width="23.5" height="7.833333" fill="black"/>
            </g>
            <g id="Graphic_464">
              <rect x="-414.89667" y="-600.5833" width="7.833333" height="7.833333" fill="black"/>
            </g>
            <g id="Graphic_463">
              <rect x="-461.89667" y="-600.5833" width="7.833333" height="7.833333" fill="black"/>
            </g>
            <g id="Graphic_462">
              <rect x="-477.56333" y="-600.5833" width="7.833333" height="7.833333" fill="black"/>
            </g>
            <g id="Graphic_461">
              <rect x="-606.8133" y="-588.8333" width="7.833333" height="15.666667" fill="black"/>
            </g>
            <g id="Graphic_460">
              <rect x="-591.1467" y="-588.8333" width="7.833333" height="15.666667" fill="black"/>
            </g>
            <g id="Graphic_459">
              <rect x="-575.48" y="-588.8333" width="7.833333" height="15.666667" fill="black"/>
            </g>
            <g id="Graphic_458">
              <rect x="-606.8133" y="-549.66667" width="7.833333" height="15.666667" fill="black"/>
            </g>
            <g id="Graphic_457">
              <rect x="-591.1467" y="-549.66667" width="7.833333" height="15.666667" fill="black"/>
            </g>
            <g id="Graphic_456">
              <rect x="-575.48" y="-549.66667" width="7.833333" height="15.666667" fill="black"/>
            </g>
            <g id="Graphic_455">
              <rect x="-551.98" y="-584.9167" width="7.833333" height="7.833333" fill="black"/>
            </g>
            <g id="Graphic_454">
              <rect x="-536.31333" y="-584.9167" width="7.833333" height="7.833333" fill="black"/>
            </g>
            <g id="Graphic_453">
              <rect x="-551.98" y="-545.75" width="7.833333" height="7.833333" fill="black"/>
            </g>
            <g id="Graphic_452">
              <rect x="-536.31333" y="-545.75" width="7.833333" height="7.833333" fill="black"/>
            </g>
            <g id="Graphic_451">
              <rect x="-555.89667" y="-506.58333" width="7.833333" height="7.833333" fill="black"/>
            </g>
            <g id="Graphic_450">
              <rect x="-540.23" y="-506.58333" width="7.833333" height="7.833333" fill="black"/>
            </g>
            <g id="Graphic_449">
              <rect x="-602.8967" y="-506.58333" width="23.5" height="7.833333" fill="black"/>
            </g>
            <g id="Graphic_448">
              <rect x="-571.5633" y="-506.58333" width="7.833333" height="7.833333" fill="black"/>
            </g>
            <g id="Graphic_447">
              <path d="M -445.055 -544.575 L -456.805 -532.825 L -451.32167 -527.34167 L -446.23 -532.43333 L -446.23 -502.66667 L -504.98 -502.66667 L -504.98 -494.83333 L -442.31333 -494.83333 C -439.96333 -494.83333 -438.39667 -496.4 -438.39667 -498.75 L -438.39667 -532.43333 L -433.305 -527.34167 L -427.82167 -532.825 L -439.57167 -544.575 C -441.13833 -546.14167 -443.48833 -546.14167 -445.055 -544.575 Z" fill="black"/>
            </g>
            <g id="Graphic_446">
              <path d="M -567.6467 -616.25 C -566.4717 -616.25 -565.6883 -616.6417 -564.905 -617.425 L -553.155 -629.175 L -558.63833 -634.6583 L -563.73 -629.5667 L -563.73 -659.3333 L -504.98 -659.3333 L -504.98 -667.1667 L -567.6467 -667.1667 C -569.9967 -667.1667 -571.5633 -665.6 -571.5633 -663.25 L -571.5633 -629.5667 L -576.655 -634.6583 L -582.1383 -629.175 L -570.3883 -617.425 C -569.605 -616.6417 -568.8217 -616.25 -567.6467 -616.25 Z" fill="black"/>
            </g>
            <g id="Graphic_445">
              <rect x="-512.81333" y="-651.5" width="7.833333" height="7.833333" fill="black"/>
            </g>
            <g id="Graphic_444">
              <rect x="-528.48" y="-651.5" width="7.833333" height="7.833333" fill="black"/>
            </g>
            <g id="Graphic_443">
              <rect x="-544.14667" y="-651.5" width="7.833333" height="7.833333" fill="black"/>
            </g>
            <g id="Graphic_442">
              <rect x="-544.14667" y="-635.8333" width="7.833333" height="7.833333" fill="black"/>
            </g>
            <g id="Graphic_441">
              <rect x="-528.48" y="-635.8333" width="7.833333" height="7.833333" fill="black"/>
            </g>
            <g id="Graphic_440">
              <rect x="-512.81333" y="-635.8333" width="7.833333" height="7.833333" fill="black"/>
            </g>
            <g id="Graphic_439">
              <rect x="-512.81333" y="-620.1667" width="7.833333" height="7.833333" fill="black"/>
            </g>
            <g id="Graphic_438">
              <rect x="-528.48" y="-620.1667" width="7.833333" height="7.833333" fill="black"/>
            </g>
            <g id="Graphic_437">
              <rect x="-504.98" y="-518.33333" width="7.833333" height="7.833333" fill="black"/>
            </g>
            <g id="Graphic_436">
              <rect x="-489.31333" y="-518.33333" width="7.833333" height="7.833333" fill="black"/>
            </g>
            <g id="Graphic_435">
              <rect x="-473.64667" y="-518.33333" width="7.833333" height="7.833333" fill="black"/>
            </g>
            <g id="Graphic_434">
              <rect x="-473.64667" y="-534" width="7.833333" height="7.833333" fill="black"/>
            </g>
            <g id="Graphic_433">
              <rect x="-489.31333" y="-534" width="7.833333" height="7.833333" fill="black"/>
            </g>
            <g id="Graphic_432">
              <rect x="-504.98" y="-534" width="7.833333" height="7.833333" fill="black"/>
            </g>
            <g id="Graphic_431">
              <rect x="-504.98" y="-549.66667" width="7.833333" height="7.833333" fill="black"/>
            </g>
            <g id="Graphic_430">
              <rect x="-489.31333" y="-549.66667" width="7.833333" height="7.833333" fill="black"/>
            </g>
          </g>
        </g>
      </g>
    </g>
  </g>
</svg>
