<?xml version="1.0" encoding="UTF-8" standalone="no"?>
<!DOCTYPE svg PUBLIC "-//W3C//DTD SVG 1.1//EN" "http://www.w3.org/Graphics/SVG/1.1/DTD/svg11.dtd">
<svg xmlns:xl="http://www.w3.org/1999/xlink" xmlns:dc="http://purl.org/dc/elements/1.1/" xmlns="http://www.w3.org/2000/svg" version="1.1" viewBox="-716.98 -258.7481 425 425" width="425" height="425">
  <defs/>
  <metadata> Produced by OmniGraffle 7.19\n2021-10-26 01:00:42 +0000</metadata>
  <g id="Canvas_1" stroke-opacity="1" fill="none" stroke-dasharray="none" fill-opacity="1" stroke="none">
    <title>Canvas 1</title>
    <rect fill="none" x="-716.98" y="-258.7481" width="425" height="425"/>
    <g id="Canvas_1_Layer_1">
      <title>Layer 1</title>
      <g id="Group_575">
        <g id="Graphic_561">
          <path d="M -355.07353 -196.65458 C -272.282 -113.8635 -272.282 20.367274 -355.07353 103.15836 C -437.8646 185.94987 -572.0954 185.94987 -654.8865 103.15836 C -737.678 20.367274 -737.678 -113.8635 -654.8865 -196.65458 C -572.0954 -279.4461 -437.8646 -279.4461 -355.07353 -196.65458" fill="#e9f0f3"/>
          <path d="M -355.07353 -196.65458 C -272.282 -113.8635 -272.282 20.367274 -355.07353 103.15836 C -437.8646 185.94987 -572.0954 185.94987 -654.8865 103.15836 C -737.678 20.367274 -737.678 -113.8635 -654.8865 -196.65458 C -572.0954 -279.4461 -437.8646 -279.4461 -355.07353 -196.65458" stroke="black" stroke-linecap="round" stroke-linejoin="round" stroke-width="0"/>
        </g>
        <g id="Group_427">
          <g id="Group_409">
            <g id="Group_410">
              <g id="Graphic_411">
                <path d="M -387.51743 -115.85873 C -385.4205 -115.85873 -383.72 -117.55874 -383.72 -119.65616 L -383.72 -148.00921 C -383.72 -159.0363 -392.6918 -168.00811 -403.7189 -168.00811 L -606.2411 -168.00811 C -617.2682 -168.00811 -626.24 -159.0363 -626.24 -148.00921 L -626.24 9.957992 C -626.24 20.985547 -617.2682 29.956892 -606.2411 29.956892 L -523.0425 29.956892 L -524.8027 66.917035 L -541.4338 66.917035 C -543.53073 66.917035 -545.2312 68.61704 -545.2312 70.71446 C -545.2312 72.81141 -543.5312 74.51189 -541.4338 74.51189 L -468.5262 74.51189 C -466.42927 74.51189 -464.7288 72.81188 -464.7288 70.71446 C -464.7288 68.61752 -466.4288 66.917035 -468.5262 66.917035 L -485.1573 66.917035 L -486.917 29.956892 L -403.7189 29.956892 C -392.69135 29.956892 -383.72 20.985073 -383.72 9.957992 L -383.72 -99.40384 C -383.72 -101.50079 -385.42 -103.20127 -387.51743 -103.20127 C -389.61437 -103.20127 -391.31485 -101.50126 -391.31485 -99.40384 L -391.31485 -1.940172 L -541.4338 -1.940172 C -543.53073 -1.940172 -545.2312 -.24016353 -545.2312 1.8572555 C -545.2312 3.9546746 -543.5312 5.654683 -541.4338 5.654683 L -391.3144 5.654683 L -391.3144 9.958466 C -391.3144 16.798287 -396.8791 22.362985 -403.7189 22.362985 L -606.2411 22.362985 C -613.0809 22.362985 -618.6456 16.798287 -618.6456 9.958466 L -618.6456 5.654683 L -561.6861 5.654683 C -559.58916 5.654683 -557.8887 3.9546746 -557.8887 1.8572555 C -557.8887 -.24016353 -559.5887 -1.940172 -561.6861 -1.940172 L -618.6456 -1.940172 L -618.6456 -136.11105 L -391.31485 -136.11105 L -391.31485 -119.65616 C -391.3144 -117.55874 -389.61437 -115.85873 -387.51743 -115.85873 Z M -515.4396 29.956892 L -494.5213 29.956892 L -492.7607 66.917035 L -517.1993 66.917035 Z M -618.6456 -143.70543 L -618.6456 -148.00921 C -618.6456 -154.84903 -613.0809 -160.41373 -606.2411 -160.41373 L -403.71937 -160.41373 C -396.87955 -160.41373 -391.31485 -154.84903 -391.31485 -148.00921 L -391.31485 -143.70543 Z" fill="black"/>
              </g>
            </g>
          </g>
          <g id="Group_412">
            <g id="Group_413">
              <g id="Graphic_414">
                <path d="M -500.92963 10.211406 L -509.03037 10.211406 C -511.1273 10.211406 -512.8278 11.911415 -512.8278 14.008834 C -512.8278 16.10578 -511.1278 17.806261 -509.03037 17.806261 L -500.92963 17.806261 C -498.8327 17.806261 -497.1322 16.106253 -497.1322 14.008834 C -497.1322 11.911415 -498.8322 10.211406 -500.92963 10.211406 Z" fill="black"/>
              </g>
            </g>
          </g>
          <g id="Group_415">
            <g id="Group_416">
              <g id="Graphic_417">
                <path d="M -577.88805 -78.89859 L -602.1907 -78.89859 C -604.2877 -78.89859 -605.98816 -77.19858 -605.98816 -75.10116 L -605.98816 -18.39506 C -605.98816 -16.298114 -604.28815 -14.597632 -602.1907 -14.597632 L -577.88805 -14.597632 C -575.7911 -14.597632 -574.0906 -16.29764 -574.0906 -18.39506 L -574.0906 -75.10116 C -574.0906 -77.19811 -575.7906 -78.89859 -577.88805 -78.89859 Z M -581.685 -22.192487 L -598.3933 -22.192487 L -598.3933 -71.30373 L -581.6855 -71.30373 L -581.6855 -22.192487 Z" fill="black"/>
              </g>
            </g>
          </g>
          <g id="Group_418">
            <g id="Group_419">
              <g id="Graphic_420">
                <path d="M -537.3834 -103.20127 L -561.6861 -103.20127 C -563.78305 -103.20127 -565.4835 -101.50126 -565.4835 -99.40384 L -565.4835 -18.39506 C -565.4835 -16.298114 -563.7835 -14.597632 -561.6861 -14.597632 L -537.3834 -14.597632 C -535.2865 -14.597632 -533.586 -16.29764 -533.586 -18.39506 L -533.586 -99.40384 C -533.586 -101.50079 -535.2865 -103.20127 -537.3834 -103.20127 Z M -541.18085 -22.192487 L -557.8887 -22.192487 L -557.8887 -95.60689 L -541.18085 -95.60689 Z" fill="black"/>
              </g>
            </g>
          </g>
          <g id="Group_421">
            <g id="Group_422">
              <g id="Graphic_423">
                <path d="M -496.87926 -123.45311 L -521.18195 -123.45311 C -523.2789 -123.45311 -524.9794 -121.7531 -524.9794 -119.65569 L -524.9794 -18.394585 C -524.9794 -16.29764 -523.27937 -14.597158 -521.18195 -14.597158 L -496.87926 -14.597158 C -494.7823 -14.597158 -493.08184 -16.297166 -493.08184 -18.394585 L -493.08184 -119.65616 C -493.08184 -121.7531 -494.78184 -123.45311 -496.87926 -123.45311 Z M -500.6762 -22.192487 L -517.38405 -22.192487 L -517.38405 -115.85873 L -500.6762 -115.85873 Z" fill="black"/>
              </g>
            </g>
          </g>
          <g id="Group_424">
            <g id="Group_425">
              <g id="Graphic_426">
                <path d="M -426.7204 -102.63287 C -426.7228 -102.63381 -426.72514 -102.63523 -426.7275 -102.63571 C -431.0204 -104.35466 -435.54444 -105.22575 -440.17316 -105.22575 C -460.13417 -105.22575 -476.374 -88.9859 -476.374 -69.0249 C -476.374 -49.06389 -460.13417 -32.82405 -440.17316 -32.82405 C -422.5578 -32.82405 -407.567 -45.404303 -404.52746 -62.736904 C -404.52746 -62.73738 -404.527 -62.73785 -404.527 -62.738325 C -404.15894 -64.837165 -403.97184 -66.95211 -403.97184 -69.024425 C -403.97184 -83.90577 -412.90103 -97.09706 -426.7204 -102.63287 Z M -440.17316 -40.41938 C -455.94643 -40.41938 -468.77915 -53.2521 -468.77915 -69.02537 C -468.77915 -84.79865 -455.94643 -97.63136 -440.17316 -97.63136 C -437.79343 -97.63136 -435.4497 -97.33958 -433.16803 -96.76265 L -443.6987 -70.43597 C -444.5807 -68.231024 -443.1663 -65.69735 -440.833 -65.28621 L -412.90813 -60.358124 C -416.6132 -48.6068 -427.53844 -40.41938 -440.17316 -40.41938 Z M -411.59275 -67.83788 L -434.91256 -71.95314 L -426.116 -93.94335 C -417.1693 -88.91959 -411.5667 -79.50252 -411.5667 -69.02537 C -411.5667 -68.63175 -411.5752 -68.23576 -411.59275 -67.83788 Z" fill="black"/>
              </g>
            </g>
          </g>
        </g>
      </g>
    </g>
  </g>
</svg>
