<?xml version="1.0" encoding="UTF-8" standalone="no"?>
<!DOCTYPE svg PUBLIC "-//W3C//DTD SVG 1.1//EN" "http://www.w3.org/Graphics/SVG/1.1/DTD/svg11.dtd">
<svg xmlns:xl="http://www.w3.org/1999/xlink" xmlns:dc="http://purl.org/dc/elements/1.1/" xmlns="http://www.w3.org/2000/svg" version="1.1" viewBox="-716.98 -1249 425 425" width="425" height="425">
  <defs/>
  <metadata> Produced by OmniGraffle 7.19\n2021-10-26 01:00:42 +0000</metadata>
  <g id="Canvas_1" stroke-opacity="1" fill="none" stroke-dasharray="none" fill-opacity="1" stroke="none">
    <title>Canvas 1</title>
    <rect fill="none" x="-716.98" y="-1249" width="425" height="425"/>
    <g id="Canvas_1_Layer_1">
      <title>Layer 1</title>
      <g id="Group_573">
        <g id="Graphic_554">
          <path d="M -355.07353 -1186.9065 C -272.282 -1104.1154 -272.282 -969.8846 -355.07353 -887.0935 C -437.8646 -804.302 -572.0954 -804.302 -654.8865 -887.0935 C -737.678 -969.8846 -737.678 -1104.1154 -654.8865 -1186.9065 C -572.0954 -1269.698 -437.8646 -1269.698 -355.07353 -1186.9065" fill="#e9f0f3"/>
          <path d="M -355.07353 -1186.9065 C -272.282 -1104.1154 -272.282 -969.8846 -355.07353 -887.0935 C -437.8646 -804.302 -572.0954 -804.302 -654.8865 -887.0935 C -737.678 -969.8846 -737.678 -1104.1154 -654.8865 -1186.9065 C -572.0954 -1269.698 -437.8646 -1269.698 -355.07353 -1186.9065" stroke="black" stroke-linecap="round" stroke-linejoin="round" stroke-width="0"/>
        </g>
        <g id="Group_300">
          <g id="Graphic_298">
            <title>machine--learning--01_1_</title>
            <path d="M -538.417 -1157.0389 C -538.43375 -1157.0389 -538.45046 -1157.0389 -538.4672 -1157.0389 C -550.7804 -1157.0389 -560.96194 -1150.6943 -565.5428 -1140.3204 L -569.55526 -1140.3204 C -569.58034 -1140.3204 -569.6054 -1140.3204 -569.6305 -1140.3204 C -580.2551 -1140.3204 -590.3447 -1136.7677 -598.03525 -1130.2977 C -606.1939 -1123.4431 -610.69116 -1113.9888 -610.7079 -1103.6985 C -610.71624 -1095.381 -606.3109 -1086.1691 -602.13964 -1080.3678 C -620.7223 -1073.9312 -633.3531 -1058.3579 -633.3782 -1041.1796 C -633.4033 -1024.0766 -620.7808 -1008.4949 -602.1647 -1001.9998 C -606.3945 -996.2152 -610.8918 -987.0534 -610.90014 -978.8781 C -610.9252 -958.5985 -592.3844 -942.0723 -569.5469 -942.0305 L -565.53446 -942.0305 C -560.9954 -931.6817 -550.7887 -925.3287 -538.417 -925.312 C -538.4003 -925.312 -538.3836 -925.312 -538.3585 -925.312 C -521.87406 -925.312 -510.34664 -936.8561 -510.32157 -953.3991 L -510.32157 -1128.9518 C -510.30485 -1145.4614 -521.849 -1157.0139 -538.417 -1157.0389 Z M -538.417 -1014.9316 C -541.36785 -1014.9316 -543.76695 -1017.3307 -543.76695 -1020.2815 C -543.76695 -1023.2323 -541.36785 -1025.6314 -538.417 -1025.6314 C -535.4662 -1025.6314 -533.0671 -1023.2323 -533.0671 -1020.2815 C -533.0671 -1017.3307 -535.4662 -1014.9316 -538.417 -1014.9316 Z M -516.3486 -1056.7278 L -535.4077 -1056.7278 L -535.4077 -1109.6837 C -530.6011 -1111.0129 -527.04844 -1115.3764 -527.04844 -1120.5926 C -527.04844 -1126.862 -532.1476 -1131.9612 -538.417 -1131.9612 C -544.6865 -1131.9612 -549.7856 -1126.862 -549.7856 -1120.5926 C -549.7856 -1115.368 -546.23293 -1111.0129 -541.42636 -1109.6837 L -541.42636 -1056.7278 L -555.13554 -1056.7278 C -555.1439 -1056.7278 -555.1439 -1056.7278 -555.15226 -1056.7278 C -561.82295 -1056.7278 -566.4958 -1052.055 -566.5041 -1045.3593 L -566.5041 -1040.0093 L -586.023 -1040.0093 C -587.3521 -1044.8159 -591.71565 -1048.3686 -596.9318 -1048.3686 C -603.2013 -1048.3686 -608.3004 -1043.2694 -608.3004 -1037 C -608.3004 -1030.7306 -603.2013 -1025.6314 -596.9318 -1025.6314 C -591.7073 -1025.6314 -587.34376 -1029.1925 -586.023 -1033.9907 L -566.5041 -1033.9907 L -566.5041 -985.2228 C -571.3107 -983.8936 -574.8634 -979.5301 -574.8634 -974.3056 C -574.8634 -968.0361 -569.76424 -962.937 -563.4948 -962.937 C -557.22536 -962.937 -552.1262 -968.0361 -552.1262 -974.3056 C -552.1262 -979.5301 -555.6789 -983.8936 -560.48547 -985.2228 L -560.48547 -1045.3593 C -560.4771 -1048.7113 -558.4876 -1050.7175 -555.1439 -1050.7175 L -555.13554 -1050.7175 L -516.3486 -1050.7175 L -516.3486 -953.4241 C -516.37367 -941.2531 -523.9388 -932.8604 -535.4077 -931.6065 L -535.4077 -1009.3727 C -530.6011 -1010.7018 -527.04844 -1015.0653 -527.04844 -1020.2898 C -527.04844 -1026.5593 -532.1476 -1031.6584 -538.417 -1031.6584 C -544.6865 -1031.6584 -549.7856 -1026.5593 -549.7856 -1020.2898 C -549.7856 -1015.0653 -546.23293 -1010.7018 -541.42636 -1009.3727 L -541.42636 -931.548 C -550.6466 -932.5009 -557.7353 -937.7505 -560.65265 -946.0513 C -561.079 -947.255 -562.2158 -948.0575 -563.4948 -948.0575 L -569.5469 -948.0575 C -586.56635 -948.0826 -604.90656 -959.8691 -604.88984 -978.8697 C -604.8731 -986.9448 -598.9213 -997.3353 -594.8086 -1001.4314 C -594.0395 -1002.192 -593.74695 -1003.3122 -594.03116 -1004.3571 C -594.3154 -1005.402 -595.1346 -1006.2129 -596.1795 -1006.4804 C -614.5615 -1011.2117 -627.3846 -1025.481 -627.3595 -1041.1796 C -627.33444 -1056.8616 -614.6367 -1071.0473 -596.4721 -1075.7953 L -574.4036 -1075.7953 C -573.0745 -1070.9887 -568.711 -1067.436 -563.4948 -1067.436 C -557.22536 -1067.436 -552.1262 -1072.5352 -552.1262 -1078.8046 C -552.1262 -1085.0741 -557.22536 -1090.1649 -563.4948 -1090.1649 C -568.7193 -1090.1649 -573.0745 -1086.6122 -574.4036 -1081.8056 L -595.5776 -1081.8056 C -599.565 -1086.328 -604.7059 -1095.9411 -604.6976 -1103.6902 C -604.68086 -1112.1832 -600.9443 -1119.9907 -594.15655 -1125.6917 C -587.6447 -1131.167 -578.7003 -1134.3018 -569.6138 -1134.3018 C -569.59706 -1134.3018 -569.572 -1134.3018 -569.5469 -1134.3018 L -563.4948 -1134.3018 C -562.2242 -1134.3018 -561.0873 -1135.1042 -560.661 -1136.2996 C -557.3842 -1145.5199 -549.0918 -1151.0203 -538.4672 -1151.0203 C -538.45046 -1151.0203 -538.4421 -1151.0203 -538.4254 -1151.0203 C -525.1927 -1150.9952 -516.3235 -1142.1344 -516.3486 -1128.9518 Z M -538.417 -1115.2426 C -541.36785 -1115.2426 -543.76695 -1117.6418 -543.76695 -1120.5926 C -543.76695 -1123.5434 -541.36785 -1125.9425 -538.417 -1125.9425 C -535.4662 -1125.9425 -533.0671 -1123.5434 -533.0671 -1120.5926 C -533.0671 -1117.6418 -535.4662 -1115.2426 -538.417 -1115.2426 Z M -563.4948 -979.6555 C -560.544 -979.6555 -558.1449 -977.2564 -558.1449 -974.3056 C -558.1449 -971.3548 -560.544 -968.9556 -563.4948 -968.9556 C -566.4456 -968.9556 -568.8447 -971.3548 -568.8447 -974.3056 C -568.8447 -977.2564 -566.4456 -979.6555 -563.4948 -979.6555 Z M -591.5819 -1037 C -591.5819 -1034.0492 -593.981 -1031.6501 -596.9318 -1031.6501 C -599.88264 -1031.6501 -602.28175 -1034.0492 -602.28175 -1037 C -602.28175 -1039.9508 -599.88264 -1042.3499 -596.9318 -1042.3499 C -593.981 -1042.3499 -591.5819 -1039.9508 -591.5819 -1037 Z M -568.8447 -1078.7963 C -568.8447 -1081.7471 -566.4456 -1084.1462 -563.4948 -1084.1462 C -560.544 -1084.1462 -558.1449 -1081.7471 -558.1449 -1078.7963 C -558.1449 -1075.8455 -560.544 -1073.4464 -563.4948 -1073.4464 C -566.4456 -1073.4464 -568.8447 -1075.8455 -568.8447 -1078.7963 Z M -376.5818 -1041.1796 C -376.5651 -1058.2827 -389.18757 -1073.856 -407.7953 -1080.3595 C -403.55714 -1086.1441 -399.0682 -1095.3058 -399.0515 -1103.4895 C -399.0348 -1113.7798 -403.5655 -1123.2592 -411.8077 -1130.1806 C -419.47316 -1136.6173 -429.8888 -1140.312 -440.40474 -1140.3288 L -444.4172 -1140.3288 C -448.9646 -1150.6775 -459.1629 -1157.0306 -471.52625 -1157.0473 C -471.55133 -1157.0473 -471.56805 -1157.0473 -471.5931 -1157.0473 C -479.7183 -1157.0473 -486.70666 -1154.3472 -491.8058 -1149.2481 C -496.9133 -1144.1239 -499.61336 -1137.1188 -499.6301 -1128.9518 L -499.6301 -953.4158 C -499.65515 -936.8979 -488.111 -925.3538 -471.55133 -925.3203 C -471.52625 -925.3203 -471.50954 -925.3203 -471.4928 -925.3203 C -459.17963 -925.3203 -449.0064 -931.6734 -444.42554 -942.0388 L -440.42146 -942.0388 C -440.388 -942.0388 -440.36294 -942.0388 -440.33787 -942.0388 C -429.71325 -942.0388 -419.62363 -945.5999 -411.9331 -952.0616 C -403.7661 -958.9162 -399.26884 -968.3621 -399.2521 -978.6607 C -399.24376 -986.9782 -403.6491 -996.1985 -407.82036 -1001.9914 C -389.22937 -1008.428 -376.6069 -1024.0014 -376.5818 -1041.1796 Z M -471.543 -1067.4277 C -468.59215 -1067.4277 -466.19305 -1065.0286 -466.19305 -1062.0778 C -466.19305 -1059.127 -468.59215 -1056.7278 -471.543 -1056.7278 C -474.4938 -1056.7278 -476.8929 -1059.127 -476.8929 -1062.0778 C -476.8929 -1065.0286 -474.4938 -1067.4277 -471.543 -1067.4277 Z M -413.47957 -1006.5723 L -435.55637 -1006.5723 C -436.8855 -1011.3789 -441.249 -1014.9316 -446.47356 -1014.9316 C -452.743 -1014.9316 -457.84215 -1009.8324 -457.84215 -1003.563 C -457.84215 -997.2935 -452.743 -992.1944 -446.47356 -992.1944 C -441.2574 -992.1944 -436.8855 -995.7471 -435.55637 -1000.5536 L -414.38237 -1000.5536 C -410.40337 -996.0313 -405.26242 -986.4181 -405.27914 -978.6691 C -405.2875 -970.1761 -409.0241 -962.3686 -415.8118 -956.6759 C -422.3404 -951.1839 -431.4018 -948.233 -440.4131 -948.0659 L -446.4652 -948.0659 C -447.7358 -948.0659 -448.87267 -947.255 -449.299 -946.068 C -452.5842 -936.8394 -460.87656 -931.3474 -471.4928 -931.3474 C -471.50954 -931.3474 -471.52625 -931.3474 -471.5346 -931.3474 C -478.0632 -931.3557 -483.61374 -933.4539 -487.576 -937.4078 C -491.5383 -941.3617 -493.6281 -946.8872 -493.6114 -953.4074 L -493.6114 -1025.6314 L -474.56066 -1025.6314 L -474.56066 -972.6839 C -479.36724 -971.3548 -482.9199 -966.9912 -482.9199 -961.7667 C -482.9199 -955.4972 -477.8208 -950.3981 -471.55133 -950.3981 C -465.2819 -950.3981 -460.18274 -955.4972 -460.18274 -961.7667 C -460.18274 -966.9829 -463.7354 -971.3548 -468.542 -972.6839 L -468.542 -1025.6314 L -454.8412 -1025.6314 C -454.8328 -1025.6314 -454.82446 -1025.6314 -454.8161 -1025.6314 C -448.13705 -1025.6314 -443.48095 -1030.3042 -443.46423 -1037 L -443.46423 -1042.3499 L -423.9537 -1042.3499 C -422.6246 -1037.5434 -418.26107 -1033.9907 -413.03653 -1033.9907 C -406.7671 -1033.9907 -401.66794 -1039.0898 -401.66794 -1045.3593 C -401.66794 -1051.6287 -406.7671 -1056.7278 -413.03653 -1056.7278 C -418.26107 -1056.7278 -422.6246 -1053.1752 -423.9537 -1048.3686 L -443.45587 -1048.3686 L -443.45587 -1097.1449 C -438.6493 -1098.474 -435.0966 -1102.8375 -435.0966 -1108.0537 C -435.0966 -1114.3231 -440.19576 -1119.4223 -446.4652 -1119.4223 C -452.73464 -1119.4223 -457.8338 -1114.3231 -457.8338 -1108.0537 C -457.8338 -1102.8375 -454.2811 -1098.474 -449.47453 -1097.1449 L -449.47453 -1037 C -449.47453 -1033.6479 -451.46404 -1031.6417 -454.80774 -1031.6417 C -454.8161 -1031.6417 -454.8161 -1031.6417 -454.82446 -1031.6417 L -493.6114 -1031.6417 L -493.6114 -1128.9518 C -493.60305 -1135.4804 -491.5049 -1141.031 -487.55095 -1144.9849 C -484.2323 -1148.3119 -479.75176 -1150.2261 -474.5523 -1150.7778 L -474.5523 -1072.995 C -479.3589 -1071.6658 -482.91156 -1067.3023 -482.91156 -1062.0861 C -482.91156 -1055.8167 -477.8124 -1050.7175 -471.543 -1050.7175 C -465.27353 -1050.7175 -460.1744 -1055.8167 -460.1744 -1062.0861 C -460.1744 -1067.3023 -463.72707 -1071.6658 -468.53364 -1072.995 L -468.53364 -1150.8196 C -459.3134 -1149.8583 -452.22473 -1144.6171 -449.30735 -1136.308 C -448.88103 -1135.1042 -447.7358 -1134.3018 -446.4652 -1134.3018 L -440.4131 -1134.3018 C -431.2848 -1134.2934 -422.2735 -1131.1002 -415.67806 -1125.5663 C -408.82347 -1119.8068 -405.05344 -1111.9742 -405.07016 -1103.4895 C -405.0785 -1095.4145 -411.03867 -1085.0239 -415.14307 -1080.9279 C -415.9121 -1080.1672 -416.2047 -1079.047 -415.92884 -1078.0022 C -415.6446 -1076.9572 -414.81706 -1076.1464 -413.77215 -1075.8789 C -395.3985 -1071.1392 -382.5754 -1056.87 -382.6005 -1041.1796 C -382.6172 -1025.5144 -395.30655 -1011.3371 -413.47957 -1006.5723 Z M -441.1153 -1003.563 C -441.1153 -1000.6122 -443.5144 -998.213 -446.4652 -998.213 C -449.416 -998.213 -451.8151 -1000.6122 -451.8151 -1003.563 C -451.8151 -1006.5138 -449.416 -1008.9129 -446.4652 -1008.9129 C -443.5144 -1008.9129 -441.1153 -1006.5138 -441.1153 -1003.563 Z M -471.543 -967.1166 C -468.59215 -967.1166 -466.19305 -964.7175 -466.19305 -961.7667 C -466.19305 -958.8159 -468.59215 -956.4168 -471.543 -956.4168 C -474.4938 -956.4168 -476.8929 -958.8159 -476.8929 -961.7667 C -476.8929 -964.7175 -474.4938 -967.1166 -471.543 -967.1166 Z M -446.4652 -1102.7038 C -449.416 -1102.7038 -451.8151 -1105.1029 -451.8151 -1108.0537 C -451.8151 -1111.0045 -449.416 -1113.4036 -446.4652 -1113.4036 C -443.5144 -1113.4036 -441.1153 -1111.0045 -441.1153 -1108.0537 C -441.1153 -1105.1029 -443.5144 -1102.7038 -446.4652 -1102.7038 Z M -418.3781 -1045.3593 C -418.3781 -1048.3101 -415.979 -1050.7092 -413.02817 -1050.7092 C -410.07736 -1050.7092 -407.67825 -1048.3101 -407.67825 -1045.3593 C -407.67825 -1042.4084 -410.07736 -1040.0093 -413.02817 -1040.0093 C -415.979 -1040.0093 -418.3781 -1042.4084 -418.3781 -1045.3593 Z" fill="black"/>
          </g>
          <g id="Graphic_299">
            <title>_Transparent_Rectangle</title>
          </g>
        </g>
      </g>
    </g>
  </g>
</svg>
