<?xml version="1.0" encoding="UTF-8" standalone="no"?>
<!DOCTYPE svg PUBLIC "-//W3C//DTD SVG 1.1//EN" "http://www.w3.org/Graphics/SVG/1.1/DTD/svg11.dtd">
<svg xmlns:xl="http://www.w3.org/1999/xlink" xmlns:dc="http://purl.org/dc/elements/1.1/" xmlns="http://www.w3.org/2000/svg" version="1.1" viewBox="-714.98 1331 425 425" width="425" height="425">
  <defs/>
  <metadata> Produced by OmniGraffle 7.19\n2021-10-26 01:00:42 +0000</metadata>
  <g id="Canvas_1" stroke-opacity="1" fill="none" stroke-dasharray="none" fill-opacity="1" stroke="none">
    <title>Canvas 1</title>
    <rect fill="none" x="-714.98" y="1331" width="425" height="425"/>
    <g id="Canvas_1_Layer_1">
      <title>Layer 1</title>
      <g id="Group_578">
        <g id="Graphic_571">
          <path d="M -353.07353 1393.0935 C -270.282 1475.8846 -270.282 1610.1154 -353.07353 1692.9065 C -435.8646 1775.698 -570.0954 1775.698 -652.8865 1692.9065 C -735.678 1610.1154 -735.678 1475.8846 -652.8865 1393.0935 C -570.0954 1310.302 -435.8646 1310.302 -353.07353 1393.0935" fill="#e9f0f3"/>
          <path d="M -353.07353 1393.0935 C -270.282 1475.8846 -270.282 1610.1154 -353.07353 1692.9065 C -435.8646 1775.698 -570.0954 1775.698 -652.8865 1692.9065 C -735.678 1610.1154 -735.678 1475.8846 -652.8865 1393.0935 C -570.0954 1310.302 -435.8646 1310.302 -353.07353 1393.0935" stroke="black" stroke-linecap="round" stroke-linejoin="round" stroke-width="0"/>
        </g>
        <g id="Group_304">
          <g id="Group_305">
            <g id="Graphic_310">
              <path d="M -406.0133 1525.4154 C -414.86593 1525.4154 -422.1786 1531.9694 -423.3995 1540.488 L -469.08185 1540.488 C -469.70485 1532.934 -472.80226 1525.9103 -477.97716 1520.3309 L -477.7963 1520.5118 L -442.7426 1485.458 L -444.62666 1483.574 L -479.6728 1518.6202 C -485.2773 1513.3599 -492.3664 1510.2047 -499.9931 1509.5741 L -499.9931 1463.427 L -500.0459 1463.427 C -491.50225 1462.2288 -484.9206 1454.9085 -484.9206 1446.0333 C -484.9206 1436.3216 -492.79347 1428.4487 -502.5052 1428.4487 C -512.21443 1428.4487 -520.08984 1436.3216 -520.08984 1446.0333 C -520.08984 1454.9085 -513.50565 1462.2288 -504.96203 1463.427 L -505.0173 1463.427 L -505.0173 1509.5415 C -513.2645 1510.0615 -520.94395 1513.4754 -526.82224 1519.3562 C -532.54226 1525.0762 -535.94363 1532.497 -536.6018 1540.488 L -582.362 1540.488 L -582.362 1543 L -582.362 1545.512 L -536.63446 1545.512 C -536.1396 1553.3975 -532.9693 1560.7404 -527.5583 1566.5031 L -562.14976 1601.0971 C -564.6468 1598.9643 -567.7517 1597.751 -571.0727 1597.751 C -574.76296 1597.751 -578.23216 1599.188 -580.8422 1601.798 C -586.22814 1607.1864 -586.22814 1615.9486 -580.8422 1621.3345 C -578.23216 1623.9446 -574.76296 1625.3765 -571.0727 1625.3765 C -567.3799 1625.3765 -563.9107 1623.942 -561.3007 1621.332 C -558.6906 1618.722 -557.2537 1615.2527 -557.2537 1611.56 C -557.2537 1608.4048 -558.359 1605.443 -560.30086 1603.0113 L -525.6566 1568.3721 C -519.94413 1573.5897 -512.73946 1576.6444 -505.0173 1577.1267 L -505.0173 1622.5704 L -504.96203 1622.5704 C -513.50565 1623.7712 -520.08984 1631.0915 -520.08984 1639.9667 C -520.08984 1649.6784 -512.21443 1657.5513 -502.5052 1657.5513 C -492.79347 1657.5513 -484.9206 1649.6784 -484.9206 1639.9667 C -484.9206 1631.0915 -491.50225 1623.7712 -500.0459 1622.5704 L -499.9931 1622.5704 L -499.9931 1577.0991 C -492.5724 1576.4862 -485.6692 1573.4792 -480.13756 1568.4726 L -445.5134 1603.0967 L -443.62936 1601.2127 L -478.22586 1566.6136 C -472.747 1560.8283 -469.5491 1553.4453 -469.0542 1545.512 L -423.3995 1545.512 C -422.1786 1554.0331 -414.86844 1560.5846 -406.0133 1560.5846 C -396.3016 1560.5846 -388.4287 1552.7143 -388.4287 1543 C -388.4287 1533.2883 -396.3016 1525.4154 -406.0133 1525.4154 Z M -471.96824 1548.9964 C -472.1893 1550.2248 -472.4983 1551.428 -472.86003 1552.6087 C -472.49327 1551.4205 -472.1893 1550.2172 -471.96824 1548.9964 Z M -563.0767 1619.5585 C -565.212 1621.6937 -568.05065 1622.8694 -571.0727 1622.8694 C -574.09474 1622.8694 -576.9309 1621.6912 -579.0662 1619.561 C -583.4724 1615.1548 -583.4724 1607.9802 -579.0662 1603.574 C -576.9309 1601.4387 -574.09474 1600.263 -571.0727 1600.263 C -568.05065 1600.263 -565.212 1601.4413 -563.0767 1603.574 C -560.9389 1605.7093 -559.7658 1608.548 -559.7658 1611.5675 C -559.7658 1614.5895 -560.94144 1617.4257 -563.0767 1619.5585 Z M -503.84415 1564.6567 C -498.4708 1564.903 -493.18786 1563.1294 -489.09316 1559.6778 C -493.18535 1563.1269 -498.4356 1564.9104 -503.84415 1564.6567 Z M -489.5177 1556.6582 C -493.0723 1560.2103 -497.8026 1562.1672 -502.8418 1562.1672 C -507.8811 1562.1672 -512.61386 1560.2103 -516.16344 1556.6582 C -519.71553 1553.1061 -521.67245 1548.3759 -521.67245 1543.3366 C -521.67245 1538.2999 -519.71805 1533.5671 -516.16595 1530.015 C -512.61386 1526.463 -507.8811 1524.5085 -502.8418 1524.5085 C -497.8026 1524.5085 -493.0698 1526.4654 -489.5177 1530.015 C -482.17235 1537.3578 -482.17235 1549.3104 -489.5177 1556.6582 Z M -471.6316 1540.488 C -472.07124 1535.6521 -473.576 1530.8968 -476.2438 1526.6463 C -473.6262 1530.8038 -472.07626 1535.5265 -471.6316 1540.488 Z M -474.307 1556.4372 C -474.86217 1557.6405 -475.4877 1558.806 -476.19106 1559.9365 C -475.48517 1558.8036 -474.85715 1557.6354 -474.307 1556.4372 Z M -472.9002 1552.7745 C -473.27955 1553.9778 -473.73927 1555.161 -474.2618 1556.309 C -473.73675 1555.1535 -473.27704 1553.9753 -472.9002 1552.7745 Z" fill="black"/>
            </g>
            <g id="Graphic_309">
              <circle cx="-599.94666" cy="1543" r="17.5846659331817" fill="black"/>
            </g>
            <g id="Graphic_308">
              <path d="M -433.9377 1488.249 C -430.24745 1488.249 -426.77826 1486.812 -424.1682 1484.2045 C -418.77725 1478.8161 -418.77725 1470.0514 -424.1682 1464.6655 C -426.77826 1462.0554 -430.24745 1460.6185 -433.9402 1460.6185 C -437.6305 1460.6185 -441.1022 1462.0554 -443.71226 1464.6655 C -446.3198 1467.2756 -447.7567 1470.7448 -447.7567 1474.435 C -447.7567 1478.1228 -446.3198 1481.592 -443.71226 1484.2045 C -441.1022 1486.812 -437.6305 1488.249 -433.9377 1488.249 Z M -441.9362 1466.439 C -439.7984 1464.3038 -436.9648 1463.1281 -433.9402 1463.1281 C -430.91567 1463.1281 -428.0795 1464.3038 -425.94424 1466.439 C -421.53804 1470.8452 -421.53804 1478.0173 -425.94424 1482.426 C -428.0795 1484.5613 -430.91567 1485.7344 -433.9377 1485.7344 C -436.95976 1485.7344 -439.7984 1484.5587 -441.9362 1482.426 C -444.0715 1480.2882 -445.24463 1477.4495 -445.24463 1474.4325 C -445.24463 1471.4155 -444.06897 1468.5768 -441.9362 1466.439 Z" fill="black"/>
            </g>
            <g id="Graphic_307">
              <path d="M -433.9377 1597.751 C -437.6305 1597.751 -441.1022 1599.188 -443.71226 1601.798 C -446.3198 1604.4055 -447.7567 1607.8772 -447.7567 1611.5675 C -447.7567 1615.2578 -446.3198 1618.7295 -443.71226 1621.3395 C -441.1022 1623.9496 -437.6305 1625.384 -433.9377 1625.384 C -430.24243 1625.384 -426.77323 1623.947 -424.1682 1621.3395 C -418.77976 1615.9536 -418.77725 1607.1864 -424.1682 1601.8005 C -426.77323 1599.188 -430.24243 1597.751 -433.9377 1597.751 Z M -425.94424 1619.561 C -428.0795 1621.6988 -430.91567 1622.8694 -433.9377 1622.8694 C -436.95976 1622.8694 -439.7984 1621.6912 -441.9362 1619.561 C -444.0715 1617.4232 -445.24463 1614.5895 -445.24463 1611.565 C -445.24463 1608.5404 -444.06897 1605.7068 -441.9362 1603.569 C -439.7984 1601.4337 -436.9648 1600.2606 -433.9377 1600.2606 C -430.9182 1600.2606 -428.0795 1601.4387 -425.94424 1603.569 C -421.53804 1607.9802 -421.53804 1615.1522 -425.94424 1619.561 Z" fill="black"/>
            </g>
            <g id="Graphic_306">
              <path d="M -571.0727 1488.249 C -568.126 1488.249 -565.3426 1487.2994 -563.00387 1485.6038 L -528.09587 1520.5118 L -526.2118 1518.6277 L -561.0017 1483.8378 C -558.6002 1481.2704 -557.2537 1477.962 -557.2537 1474.435 C -557.2537 1470.7448 -558.6906 1467.273 -561.3007 1464.663 C -563.9082 1462.053 -567.3774 1460.6185 -571.0702 1460.6185 C -574.76296 1460.6185 -578.2347 1462.0554 -580.8422 1464.663 C -583.44725 1467.268 -584.88166 1470.7372 -584.88166 1474.4325 C -584.88166 1478.1278 -583.44725 1481.597 -580.8422 1484.202 C -578.2347 1486.812 -574.7655 1488.249 -571.0727 1488.249 Z M -579.0662 1466.439 C -576.9309 1464.3038 -574.09474 1463.1306 -571.0702 1463.1306 C -568.05065 1463.1306 -565.212 1464.3063 -563.0767 1466.439 C -560.9389 1468.5743 -559.7658 1471.413 -559.7658 1474.435 C -559.7658 1477.452 -560.94395 1480.2907 -563.0767 1482.4285 C -565.212 1484.5638 -568.04814 1485.737 -571.0727 1485.737 C -574.0922 1485.737 -576.9309 1484.5613 -579.0662 1482.4285 C -581.1989 1480.2982 -582.3696 1477.457 -582.3696 1474.435 C -582.3696 1471.413 -581.1964 1468.5718 -579.0662 1466.439 Z" fill="black"/>
            </g>
          </g>
        </g>
      </g>
    </g>
  </g>
</svg>
