<?xml version="1.0" encoding="UTF-8" standalone="no"?>
<!DOCTYPE svg PUBLIC "-//W3C//DTD SVG 1.1//EN" "http://www.w3.org/Graphics/SVG/1.1/DTD/svg11.dtd">
<svg xmlns:xl="http://www.w3.org/1999/xlink" xmlns:dc="http://purl.org/dc/elements/1.1/" xmlns="http://www.w3.org/2000/svg" version="1.1" viewBox="-716.98 358 425 425" width="425" height="425">
  <defs/>
  <metadata> Produced by OmniGraffle 7.19\n2021-10-26 01:00:42 +0000</metadata>
  <g id="Canvas_1" stroke-opacity="1" fill="none" stroke-dasharray="none" fill-opacity="1" stroke="none">
    <title>Canvas 1</title>
    <rect fill="none" x="-716.98" y="358" width="425" height="425"/>
    <g id="Canvas_1_Layer_1">
      <title>Layer 1</title>
      <g id="Group_576">
        <g id="Graphic_563">
          <path d="M -355.07353 420.09353 C -272.282 502.8846 -272.282 637.1154 -355.07353 719.9065 C -437.8646 802.698 -572.0954 802.698 -654.8865 719.9065 C -737.678 637.1154 -737.678 502.8846 -654.8865 420.09353 C -572.0954 337.302 -437.8646 337.302 -355.07353 420.09353" fill="#e9f0f3"/>
          <path d="M -355.07353 420.09353 C -272.282 502.8846 -272.282 637.1154 -355.07353 719.9065 C -437.8646 802.698 -572.0954 802.698 -654.8865 719.9065 C -737.678 637.1154 -737.678 502.8846 -654.8865 420.09353 C -572.0954 337.302 -437.8646 337.302 -355.07353 420.09353" stroke="black" stroke-linecap="round" stroke-linejoin="round" stroke-width="0"/>
        </g>
        <g id="Group_380">
          <g id="Graphic_386">
            <path d="M -389.41 455.4487 L -620.55 455.4487 C -622.65464 455.4487 -624.36 457.25834 -624.36 459.4917 L -624.36 680.5083 C -624.36 682.74166 -622.65464 684.5513 -620.55 684.5513 L -389.41 684.5513 C -387.30536 684.5513 -385.6 682.74166 -385.6 680.5083 L -385.6 459.4917 C -385.6 457.25834 -387.30536 455.4487 -389.41 455.4487 Z M -393.22 676.4653 L -616.74 676.4653 L -616.74 463.5347 L -475.77 463.5347 L -475.77 487.7926 L -605.31 487.7926 C -607.41464 487.7926 -609.12 489.60224 -609.12 491.8356 C -609.12 494.06893 -607.41464 495.8786 -605.31 495.8786 L -404.65 495.8786 C -402.54536 495.8786 -400.84 494.06893 -400.84 491.8356 C -400.84 489.60224 -402.54536 487.7926 -404.65 487.7926 L -468.15 487.7926 L -468.15 463.5347 L -393.22 463.5347 Z" fill="black"/>
          </g>
          <g id="Graphic_385">
            <ellipse cx="-430.558" cy="475.66364" rx="3.81000799300926" ry="4.0429954616122" fill="black"/>
          </g>
          <g id="Graphic_384">
            <ellipse cx="-451.386" cy="475.66364" rx="3.81000799300931" ry="4.0429954616122" fill="black"/>
          </g>
          <g id="Graphic_383">
            <ellipse cx="-409.73" cy="475.66364" rx="3.81000799300931" ry="4.0429954616122" fill="black"/>
          </g>
          <g id="Graphic_382">
            <path d="M -504.98 554.7315 C -520.54817 554.7315 -533.2131 568.1715 -533.2131 584.69114 C -533.2131 601.2108 -520.54817 614.65075 -504.98 614.65075 C -500.5015 614.65075 -496.0331 613.5009 -492.0585 611.3263 C -490.18806 610.3032 -489.454 607.86446 -490.4182 605.8796 C -491.3829 603.8948 -493.68056 603.11745 -495.551 604.139 C -498.4918 605.7481 -501.6638 606.5642 -504.98 606.5642 C -516.346 606.5642 -525.5931 596.75164 -525.5931 584.6906 C -525.5931 572.62956 -516.346 562.81696 -504.98 562.81696 C -493.614 562.81696 -484.3669 572.62956 -484.3669 584.6906 C -484.3669 588.2096 -485.136 591.5755 -486.65187 594.69564 C -487.61605 596.67994 -486.882 599.1181 -485.01154 600.14235 C -483.1421 601.1639 -480.8444 600.3876 -479.8787 598.4017 C -477.82943 594.1857 -476.7464 589.4446 -476.7464 584.6906 C -476.7469 568.17095 -489.41183 554.7315 -504.98 554.7315 Z" fill="black"/>
          </g>
          <g id="Graphic_381">
            <path d="M -442.4518 569.86685 L -458.47565 569.86685 C -459.41596 566.5516 -460.6712 563.34686 -462.22824 560.2893 L -450.88765 548.25574 C -450.1734 547.4973 -449.7721 546.4693 -449.7721 545.39654 C -449.7721 544.3238 -450.1734 543.29634 -450.88765 542.53734 L -465.2559 527.2904 C -466.74436 525.71204 -469.15635 525.71204 -470.6443 527.2904 L -481.98436 539.3245 C -484.86574 537.6728 -487.8853 536.34025 -491.01 535.34244 L -491.01 518.3387 C -491.01 516.10537 -492.71536 514.2957 -494.82 514.2957 L -515.14 514.2957 C -517.24464 514.2957 -518.95 516.10537 -518.95 518.3387 L -518.95 535.34244 C -522.0742 536.34025 -525.09426 537.6723 -527.97564 539.3245 L -539.3157 527.2904 C -540.80416 525.71204 -543.21614 525.71204 -544.7041 527.2904 L -559.07235 542.53734 C -559.7866 543.2958 -560.1879 544.3238 -560.1879 545.39654 C -560.1879 546.4693 -559.7866 547.49673 -559.07235 548.25574 L -547.73176 560.2893 C -549.2883 563.34686 -550.54404 566.55106 -551.48435 569.86685 L -567.5082 569.86685 C -569.61284 569.86685 -571.3182 571.6765 -571.3182 573.90984 L -571.3182 595.4724 C -571.3182 597.7058 -569.61284 599.5154 -567.5082 599.5154 L -551.48384 599.5154 C -550.54354 602.83175 -549.2888 606.03595 -547.73176 609.093 L -559.07184 621.126 C -559.7866 621.88446 -560.1879 622.91246 -560.1879 623.9852 C -560.1879 625.0579 -559.7866 626.0854 -559.07235 626.8444 L -544.7041 642.0913 C -543.21614 643.66915 -540.80365 643.6702 -539.3162 642.0913 L -527.97564 630.0578 C -525.09426 631.70946 -522.0747 633.042 -518.95 634.0398 L -518.95 651.043 C -518.95 653.2764 -517.24464 655.086 -515.14 655.086 L -494.82 655.086 C -492.71536 655.086 -491.01 653.2764 -491.01 651.043 L -491.01 634.0398 C -487.8858 633.042 -484.86574 631.71 -481.98436 630.0578 L -470.6438 642.0913 C -469.15635 643.6697 -466.74386 643.6697 -465.2559 642.0913 L -450.88765 626.8444 C -450.1734 626.0859 -449.7721 625.0579 -449.7721 623.9852 C -449.7721 622.91246 -450.1734 621.885 -450.88816 621.126 L -462.22824 609.093 C -460.67173 606.0354 -459.41646 602.83175 -458.47616 599.5154 L -442.4518 599.5154 C -440.34716 599.5154 -438.6418 597.7058 -438.6418 595.4724 L -438.6418 573.90984 C -438.6418 571.6765 -440.34767 569.86685 -442.4518 569.86685 Z M -446.2618 591.42945 L -461.4012 591.42945 C -463.1721 591.42945 -464.7098 592.7243 -465.11216 594.55495 C -466.1256 599.17096 -467.8467 603.5638 -470.2272 607.6127 C -471.166 609.2089 -470.9425 611.28105 -469.6882 612.6115 L -458.9694 623.9852 L -467.94985 633.5148 L -478.66916 622.1405 C -479.9229 620.81064 -481.87464 620.574 -483.37933 621.5691 C -487.1949 624.0957 -491.3351 625.9215 -495.6846 626.99695 C -497.4098 627.4239 -498.63 629.0551 -498.63 630.9348 L -498.63 646.9995 L -511.33 646.9995 L -511.33 630.9348 C -511.33 629.05564 -512.5502 627.4239 -514.2754 626.99695 C -518.6249 625.9215 -522.7651 624.0952 -526.58067 621.5691 C -528.08536 620.57345 -530.0386 620.8112 -531.29084 622.1405 L -542.01015 633.5148 L -550.9906 623.9852 L -540.2718 612.6115 C -539.0175 611.2805 -538.7945 609.20835 -539.7333 607.6122 C -542.1133 603.5649 -543.8339 599.17204 -544.84784 594.55495 C -545.2502 592.7243 -546.7874 591.42945 -548.5588 591.42945 L -563.6982 591.42945 L -563.6982 577.9528 L -548.5588 577.9528 C -546.7879 577.9528 -545.2502 576.658 -544.84784 574.8273 C -543.8344 570.21185 -542.1133 565.8185 -539.7328 561.76956 C -538.794 560.1734 -539.0175 558.1012 -540.2713 556.7708 L -550.9906 545.39654 L -542.01015 535.86695 L -531.29135 547.24176 C -530.0376 548.5722 -528.08486 548.80936 -526.58067 547.81317 C -522.7651 545.2866 -518.6249 543.46076 -514.2754 542.3853 C -512.5502 541.9584 -511.33 540.3272 -511.33 538.44745 L -511.33 522.38224 L -498.63 522.38224 L -498.63 538.44745 C -498.63 540.3266 -497.4098 541.9584 -495.6846 542.3853 C -491.3351 543.46076 -487.1949 545.2871 -483.37933 547.81317 C -481.87464 548.80936 -479.9214 548.57055 -478.66865 547.24176 L -467.94985 535.86695 L -458.9694 545.39654 L -469.68873 556.7708 C -470.9425 558.10176 -471.1655 560.1739 -470.2272 561.76956 C -467.8462 565.8185 -466.1256 570.21185 -465.11216 574.8273 C -464.7098 576.658 -463.1726 577.9528 -461.4012 577.9528 L -446.2618 577.9528 Z" fill="black"/>
          </g>
        </g>
      </g>
    </g>
  </g>
</svg>
